<?xml version="1.0" encoding="UTF-8"?> <svg xmlns="http://www.w3.org/2000/svg" width="1440" height="934" fill="none"><g clip-path="url(#a)"><g opacity=".2"><path d="m104.601 902.122-35.038 31.292v-62.577l35.038 31.285z" fill="#92C5EB"></path><path d="m104.601 902.122 17.523-15.646 17.523-15.639 35.046 31.285h-70.092z" fill="#92C5EB"></path><path d="m174.108 902.122-35.046 31.292H68.978l17.523-15.646 17.515-15.646h70.092z" fill="#417DC0"></path><path d="m244.777 902.122 17.523-15.646 17.523-15.639 17.524 15.639 17.522 15.646-35.046 31.292-35.046-31.292z" fill="#C3E0F5"></path><path d="M70.084 870.837v62.577H0l70.084-62.577z" fill="#417DC0"></path><path d="M349.916 870.837 420 933.414H279.824l70.092-62.577z" fill="#133356"></path><path d="M279.823 933.414H139.647l35.046-31.292 35.046-31.285 35.038 31.285 35.046 31.292z" fill="#1754A5"></path></g><g opacity=".1"><path d="M1479.38 820.929c0-34.178-27.69-61.877-61.85-61.877s-61.84 27.699-61.84 61.877 27.68 61.877 61.84 61.877c34.16 0 61.85-27.699 61.85-61.877z" fill="#1754A5"></path><path d="M1293.84 759.052c-34.16 0-61.84 27.699-61.84 61.877s27.68 61.877 61.84 61.877c34.16 0 61.85-27.699 61.85-61.877s-27.69-61.877-61.85-61.877zM1355.69 944.683c0-34.174-27.69-61.877-61.85-61.877-34.15 0-61.84 27.703-61.84 61.877 0 34.174 27.69 61.877 61.84 61.877 34.16 0 61.85-27.703 61.85-61.877zM1417.53 882.806c-34.16 0-61.84 27.699-61.84 61.877s27.68 61.877 61.84 61.877c34.16 0 61.85-27.699 61.85-61.877s-27.69-61.877-61.85-61.877zM1479.38 573.419c0-34.177-27.69-61.877-61.85-61.877s-61.84 27.7-61.84 61.877c0 34.178 27.68 61.878 61.84 61.878 34.16 0 61.85-27.7 61.85-61.878z" fill="#92C5EB"></path><path d="M1293.84 511.542c-34.16 0-61.84 27.7-61.84 61.877 0 34.178 27.68 61.878 61.84 61.878 34.16 0 61.85-27.7 61.85-61.878 0-34.177-27.69-61.877-61.85-61.877z" fill="#133356"></path><path d="M1231.69 944.419c0-34.174-27.69-61.877-61.85-61.877-34.15 0-61.84 27.703-61.84 61.877 0 34.174 27.69 61.881 61.84 61.881 34.16 0 61.85-27.707 61.85-61.881zM1417.53 635.295c-34.16 0-61.84 27.7-61.84 61.877 0 34.178 27.68 61.878 61.84 61.878 34.16 0 61.85-27.7 61.85-61.878 0-34.177-27.69-61.877-61.85-61.877z" fill="#92C5EB"></path></g></g><defs><clipPath id="a"><path fill="#fff" transform="translate(0 .792)" d="M0 0h1440v933H0z"></path></clipPath></defs></svg> 